<?xml version="1.0" encoding="utf-8"?>
<!-- Generator: Adobe Illustrator 25.2.1, SVG Export Plug-In . SVG Version: 6.00 Build 0)  -->
<svg version="1.1" id="Capa_1" xmlns="http://www.w3.org/2000/svg" xmlns:xlink="http://www.w3.org/1999/xlink" x="0px" y="0px"
	 viewBox="0 0 129.18 93.18" style="enable-background:new 0 0 129.18 93.18;" xml:space="preserve">
<style type="text/css">
	.st0{fill:#3699D8;}
	.st1{fill:#FFFFFF;}
	.st2{fill:#D15E9E;}
	.st3{fill:#FFFFFA;}
</style>
<g>
	<rect x="355.87" y="1669.85" class="st0" width="93.18" height="93.18"/>
	<path class="st1" d="M391.66,1740.11c21.98,0,34-18.21,34-34c0-0.52-0.01-1.03-0.03-1.54c2.33-1.69,4.36-3.79,5.96-6.19
		c-2.14,0.95-4.45,1.59-6.86,1.88c2.47-1.48,4.36-3.82,5.25-6.61c-2.31,1.37-4.87,2.36-7.59,2.9c-2.18-2.32-5.29-3.78-8.72-3.78
		c-6.6,0-11.95,5.35-11.95,11.95c0,0.94,0.11,1.85,0.31,2.72c-9.93-0.5-18.74-5.25-24.63-12.48c-1.03,1.77-1.62,3.82-1.62,6.01
		c0,4.15,2.11,7.81,5.32,9.95c-1.96-0.06-3.8-0.6-5.41-1.49c0,0.05,0,0.1,0,0.15c0,5.79,4.12,10.62,9.59,11.71
		c-1,0.27-2.06,0.42-3.15,0.42c-0.77,0-1.52-0.08-2.25-0.22c1.52,4.75,5.93,8.2,11.16,8.3c-4.09,3.2-9.24,5.11-14.84,5.11
		c-0.96,0-1.92-0.06-2.85-0.17C378.63,1738.13,384.91,1740.11,391.66,1740.11"/>
</g>
<g>
	<rect x="0.15" y="-0.33" class="st2" width="129.12" height="93.52"/>
	<g>
		<path class="st3" d="M27.44,32.7h17.64v5.36H34.2v6.41h9.01v5.32H34.2v10.1h-6.76V32.7z"/>
		<path class="st3" d="M53,32.7h6.25l9.67,27.19h-7.11l-1.71-5.59h-8.04l-1.59,5.59h-7.03L53,32.7z M58.6,49.29l-2.6-8.66
			l-2.49,8.66H58.6z"/>
		<path class="st3" d="M69.79,41.17c0-5.59,4.78-9.01,10.68-9.01c5.87,0,10.64,3.42,10.64,9.01v10.22c0,3.22-1.67,5.71-4.08,7.26
			l3.19,5.36h-5.4l-2.1-3.81c-0.7,0.12-1.52,0.23-2.25,0.23c-5.9,0-10.68-3.46-10.68-9.05V41.17z M77.56,51.38h5.32l0.97,1.79
			c0.31-0.58,0.51-1.28,0.51-2.1v-9.56c0-2.72-1.75-4.16-3.89-4.16c-2.18,0-3.88,1.44-3.88,4.16v9.56c0,2.41,1.32,3.81,3.22,4.12
			L77.56,51.38z"/>
		<path class="st3" d="M94.2,55.5h3.72v0.41c0,0.8,0.75,1.35,1.93,1.35c1.01,0,1.52-0.46,1.52-1.13v-0.1c0-1.06-1.5-1.33-3.35-1.71
			c-2.05-0.43-3.67-1.57-3.67-3.91v-0.36c0-2.39,1.76-3.91,5.31-3.91c3.67,0,5.31,1.88,5.31,4.22v0.39h-3.67v-0.39
			c0-0.8-0.51-1.35-1.64-1.35c-0.92,0-1.33,0.6-1.33,1.23v0.14c0,0.75,0.8,1.09,2.56,1.47c2.46,0.53,4.44,1.47,4.44,3.88v0.43
			c0,2.32-1.93,3.96-5.48,3.96c-3.57,0-5.65-1.71-5.65-4.22V55.5z"/>
	</g>
</g>
</svg>
