<?xml version="1.0" encoding="utf-8"?>
<!-- Generator: Adobe Illustrator 25.2.1, SVG Export Plug-In . SVG Version: 6.00 Build 0)  -->
<svg version="1.1" id="Capa_1" xmlns="http://www.w3.org/2000/svg" xmlns:xlink="http://www.w3.org/1999/xlink" x="0px" y="0px"
	 viewBox="0 0 93.18 93.18" style="enable-background:new 0 0 93.18 93.18;" xml:space="preserve">
<style type="text/css">
	.st0{fill:#3699D8;}
	.st1{fill:#FFFFFF;}
</style>
<g>
	<rect x="337.87" y="1669.85" class="st0" width="93.18" height="93.18"/>
	<path class="st1" d="M373.66,1740.11c21.98,0,34-18.21,34-34c0-0.52-0.01-1.03-0.03-1.54c2.33-1.69,4.36-3.79,5.96-6.19
		c-2.14,0.95-4.45,1.59-6.86,1.88c2.47-1.48,4.36-3.82,5.25-6.61c-2.31,1.37-4.87,2.36-7.59,2.9c-2.18-2.32-5.29-3.78-8.72-3.78
		c-6.6,0-11.95,5.35-11.95,11.95c0,0.94,0.11,1.85,0.31,2.72c-9.93-0.5-18.74-5.25-24.63-12.48c-1.03,1.77-1.62,3.82-1.62,6.01
		c0,4.15,2.11,7.81,5.32,9.95c-1.96-0.06-3.8-0.6-5.41-1.49c0,0.05,0,0.1,0,0.15c0,5.79,4.12,10.62,9.59,11.71
		c-1,0.27-2.06,0.42-3.15,0.42c-0.77,0-1.52-0.08-2.25-0.22c1.52,4.75,5.93,8.2,11.16,8.3c-4.09,3.2-9.24,5.11-14.84,5.11
		c-0.96,0-1.92-0.06-2.85-0.17C360.63,1738.13,366.91,1740.11,373.66,1740.11"/>
</g>
<g>
	<rect x="0.12" y="-0.16" class="st0" width="93.18" height="93.18"/>
	<path class="st1" d="M35.91,70.1c21.98,0,34-18.21,34-34c0-0.52-0.01-1.03-0.03-1.54c2.33-1.69,4.36-3.79,5.96-6.19
		c-2.14,0.95-4.45,1.59-6.86,1.88c2.47-1.48,4.36-3.82,5.25-6.61c-2.31,1.37-4.87,2.36-7.59,2.9c-2.18-2.32-5.29-3.78-8.72-3.78
		c-6.6,0-11.95,5.35-11.95,11.95c0,0.94,0.11,1.85,0.31,2.72c-9.93-0.5-18.74-5.25-24.63-12.48c-1.03,1.77-1.62,3.82-1.62,6.01
		c0,4.15,2.11,7.81,5.32,9.95c-1.96-0.06-3.8-0.6-5.41-1.49c0,0.05,0,0.1,0,0.15c0,5.79,4.12,10.62,9.59,11.71
		c-1,0.27-2.06,0.42-3.15,0.42c-0.77,0-1.52-0.08-2.25-0.22c1.52,4.75,5.93,8.2,11.16,8.3c-4.09,3.2-9.24,5.11-14.84,5.11
		c-0.96,0-1.92-0.06-2.85-0.17C22.88,68.12,29.16,70.1,35.91,70.1"/>
</g>
</svg>
